<svg
version="1.1"
xmlns="http://www.w3.org/2000/svg"
xmlns:xlink="http://www.w3.org/1999/xlink"
preserveAspectRatio="xMidYMid meet"
viewBox="662 358 168 167"
>
<g
data-item-type="shape"
data-item="Shape"
data-logo-item=""
id="logo__item--shape_1"
class="logo__item"
>
<g
class="logo__item__inner"
transform="translate(665.55078125 347) scale(1.890005452021269 1.890005452021269) rotate(0 0 0)"
>
<path
fill="#c99d25"
d="M59.2,91.5H26.8c-13.4,0-24.3-10.9-24.3-24.3V34.8c0-13.4,10.9-24.3,24.3-24.3h32.3  c13.4,0,24.3,10.9,24.3,24.3v32.3C83.5,80.6,72.6,91.5,59.2,91.5z"
data-part-id="logo__item--shape_1__0"
></path>
</g>
</g>
<g
data-item-type="text"
data-item="Business"
id="logo__item--business"
class="logo__item"
>
<g
class="logo__item__inner"
transform="translate(702 493) scale(4.225838562253614 4.225838562253614) rotate(0 0 0)"
>
<text
data-part-id="logo__item--business"
dy="0"
dominant-baseline="auto"
alignment-baseline="auto"
font-family="sans-serif"
font-size="32px"
fill="#e3ea99"
letter-spacing="0"
font-weight="bold"
font-style="normal"
>
Y
</text>
</g>
</g>
<g
data-item-type="shape"
data-item="Shape"
data-logo-item=""
id="logo__item--shape_2"
class="logo__item"
>
<g
class="logo__item__inner"
transform="translate(663.798828125 346.30078125) scale(1.8955461630111838 1.8955461630111838) rotate(0 0 0)"
>
<filter
id="logo__item--shape_1__0_Effect"
x="-100%"
y="-100%"
width="300%"
height="300%"
>
<feGaussianBlur
in="SourceGraphic"
stdDeviation="1"
result="glow"
></feGaussianBlur>
<feMerge>
<feMergeNode in="glow"></feMergeNode>
<feMergeNode in="SourceGraphic"></feMergeNode>
</feMerge>
</filter>
<linearGradient
id="logo__item--shape_1__0"
gradientUnits="objectBoundingBox"
x1="0.5"
y1="0"
x2="0.5"
y2="1"
>
<stop offset="0" style="stop-color: #eeee15;"></stop>
<stop offset="1" style="stop-color: #f7a601;"></stop>
</linearGradient>
<path
fill="url(#logo__item--shape_1__0)"
d="M63.1,91.2h-39c-11.4,0-20.7-9.3-20.7-20.7v-39c0-11.4,9.3-20.7,20.7-20.7h39c11.4,0,20.7,9.3,20.7,20.7v39  C83.9,81.9,74.5,91.2,63.1,91.2z M24.2,12.4C13.6,12.4,5.1,21,5.1,31.5v39c0,10.5,8.6,19.1,19.1,19.1h39c10.5,0,19.1-8.6,19.1-19.1  v-39c0-10.5-8.6-19.1-19.1-19.1C63.1,12.4,24.2,12.4,24.2,12.4z"
data-part-id="logo__item--shape_2__0"
data-filter-glow=""
data-filter-glow-thickness="1"
filter="url(#logo__item--shape_1__0_Effect)"
></path>
</g>
</g>
</svg>
